<svg width="24" height="24" viewBox="0 0 24 24" fill="none" xmlns="http://www.w3.org/2000/svg">
  <path fill-rule="evenodd" clip-rule="evenodd" d="M20.298 3H3.69397C2.58222 3 1.69397 3.89543 1.69397 5.00719V20.9928C1.69397 22.1046 2.58222 23 3.69397 23H20.298C21.4098 23 22.298 22.1046 22.298 20.9928V5.00719C22.298 3.89543 21.4098 3 20.298 3ZM8.44797 18.001V9.50099H6.29897V18.001H8.44797ZM7.37297 8.19999C7.87438 8.19999 8.44797 7.6264 8.44797 7.12499C8.44797 6.62357 7.87438 6.04999 7.37297 6.04999C6.87155 6.04999 6.29797 6.62357 6.29797 7.12499C6.29797 7.6264 6.87155 8.19999 7.37297 8.19999ZM18.001 18.001H15.851V13.451C15.851 12.526 15.826 11.399 14.925 11.399C14.026 11.399 13.974 12.367 13.974 13.409V18.001H11.823V9.50099H13.898V10.701H13.949C14.324 10.099 15.026 9.60001 16.324 9.60001C18.674 9.60001 18.999 11.174 18.999 13.576V18.001H18.001Z" fill="#000"/>
</svg>

